<svg xmlns="http://www.w3.org/2000/svg" xmlns:xlink="http://www.w3.org/1999/xlink"><defs>
<filter id="filter0_d_24_9973" x="0" y="0" width="62" height="88" filterUnits="userSpaceOnUse" color-interpolation-filters="sRGB">
<feFlood flood-opacity="0" result="BackgroundImageFix"/>
<feColorMatrix in="SourceAlpha" type="matrix" values="0 0 0 0 0 0 0 0 0 0 0 0 0 0 0 0 0 0 127 0" result="hardAlpha"/>
<feOffset dy="4"/>
<feGaussianBlur stdDeviation="7.5"/>
<feColorMatrix type="matrix" values="0 0 0 0 0.575 0 0 0 0 0.575 0 0 0 0 0.575 0 0 0 0.25 0"/>
<feBlend mode="normal" in2="BackgroundImageFix" result="effect1_dropShadow_24_9973"/>
<feBlend mode="normal" in="SourceGraphic" in2="effect1_dropShadow_24_9973" result="shape"/>
</filter>
</defs><symbol id="cat-in-map" viewBox="0 0 62 88">
<g filter="url(#filter0_d_24_9973)">
<path d="M39.405 43.0063L22.5963 42.9976L19.3146 66.7257C19.1483 67.9278 20.0823 68.9999 21.2957 68.9999H40.7043C41.9177 68.9999 42.8516 67.9278 42.6854 66.7257L39.405 43.0063Z" fill="#FF7236"/>
<path d="M22.0757 46.7613C24.7387 48.1849 27.7752 48.9979 31 48.9979C34.2248 48.9979 37.2614 48.1849 39.9244 46.7613L39.405 43.006L22.5963 42.9973L22.0757 46.7613Z" fill="#FFAA50"/>
<path d="M38 17.9953L44.5759 11.4188C45.4704 10.5242 47 11.1578 47 12.423V29.9964C46.9999 24.2963 42.4869 20.8297 38 17.9953Z" fill="#FF7236"/>
<path d="M47 29.9965C47 38.8339 39.8366 45.9979 31.0001 45.9979C22.1637 45.9979 15.0002 38.8338 15.0002 29.9965C15.0002 21.1592 22.1636 14.9951 31.0001 14.9951C39.8367 14.9951 47 21.1591 47 29.9965Z" fill="#FFAA50"/>
<path d="M24 29.9964C24 22.2947 28.4219 16.6269 34.3103 15.2965C33.2417 15.1004 32.1354 14.9951 31 14.9951C28.0556 14.9951 25.3064 15.6923 22.9366 16.9318L17.4241 11.4188C16.5296 10.5242 15 11.1578 15 12.423V29.9964C15 29.6357 15 29.6377 15 29.9964C15 38.8338 22.1634 45.9978 30.9999 45.9978C32.1354 45.9978 33.2417 45.8756 34.3102 45.6508C28.4219 44.1252 24 37.6981 24 29.9964Z" fill="#FF7236"/>
<path d="M27.4999 39.9973C29.4329 39.9973 30.9999 38.6541 30.9999 36.9971C30.9999 35.3401 29.4329 33.9968 27.4999 33.9968C25.567 33.9968 24 35.3401 24 36.9971C24 38.6541 25.567 39.9973 27.4999 39.9973Z" fill="#FFFDFB"/>
<path d="M34.5002 39.9973C36.4331 39.9973 38.0001 38.6541 38.0001 36.9971C38.0001 35.3401 36.4331 33.9968 34.5002 33.9968C32.5672 33.9968 31.0002 35.3401 31.0002 36.9971C31.0002 38.6541 32.5672 39.9973 34.5002 39.9973Z" fill="#FFFDFB"/>
<path d="M31.0003 36.9977C32.1048 36.9977 33.0003 36.1022 33.0003 34.9975C33.0003 33.8928 32.1048 32.9973 31.0003 32.9973C29.8957 32.9973 29.0002 33.8928 29.0002 34.9975C29.0002 36.1022 29.8957 36.9977 31.0003 36.9977Z" fill="#FF913C"/>
<path d="M37.9962 57.9158C37.9513 57.3659 37.4855 56.9572 36.9171 57.0022C36.3663 57.048 35.9582 57.5315 36.004 58.0818L36.1934 60.3549C36.4466 63.3935 34.049 65.9995 31.0001 65.9995C27.9513 65.9995 25.5536 63.3935 25.8068 60.3549L25.9961 58.0818C26.042 57.5315 25.6338 57.048 25.0831 57.0022C24.5167 56.9578 24.0498 57.3659 24.0039 57.9158L23.0806 68.9998H38.9198L37.9962 57.9158Z" fill="#FFAA50"/>
<path d="M25.0002 30.9965C24.4474 30.9965 24.0002 30.5487 24.0002 29.9964V28.9964C24.0002 28.4441 24.4475 27.9963 25.0002 27.9963C25.5528 27.9963 26.0001 28.4441 26.0001 28.9964V29.9964C26.0001 30.5487 25.5528 30.9965 25.0002 30.9965Z" fill="#1A212F"/>
<path d="M37 30.9965C36.4472 30.9965 36 30.5487 36 29.9964V28.9964C36 28.4441 36.4473 27.9963 37 27.9963C37.5527 27.9963 37.9999 28.4441 37.9999 28.9964V29.9964C38 30.5487 37.5527 30.9965 37 30.9965Z" fill="#1A212F"/>
</g>

</symbol><symbol id="feesh-mobile-white" viewBox="0 0 484 151">
<path fill-rule="evenodd" clip-rule="evenodd" d="M370.831 52.0516C380.073 63.084 378.013 91.5917 367.638 99.4824C361.868 83.1801 363.895 67.7079 370.831 52.0516ZM329.211 117.213C320.711 99.2421 324.462 47.9706 331.414 34.8633C345.093 53.0594 344.063 96.5651 329.211 117.213ZM91.0073 43.8584C102.532 43.8334 110.64 52.1171 110.648 63.9077C110.656 75.5205 102.164 84.2347 90.9673 84.0974C79.7463 83.9695 71.7893 75.6952 71.7175 64.1136C71.6377 52.1015 79.475 43.8834 91.0073 43.8584ZM285.58 19.65C308.461 50.4073 303.592 109.338 282.555 131.509C283.569 94.25 284.558 57.5397 285.58 19.65ZM154.111 12.2275C181.989 52.6195 174.271 111.669 151.159 136.358C157.168 94.3218 155.676 53.2996 154.111 12.2275ZM234.343 138.451C241.869 96.2001 242.316 54.3698 242.212 11.2541C265.005 43.0753 262.834 110.87 234.343 138.451ZM194.111 139.64C198.046 96.5651 205.181 53.5461 197.04 10.1745C225.723 42.108 221.829 102.74 194.111 139.64ZM450.216 78.1319C463.464 69.9918 473.496 59.4242 480.192 45.9738C489.011 28.2177 482.267 16.8139 462.499 15.073C451.916 14.137 442.044 16.5019 433.193 21.8934C425.061 26.8386 417.575 32.8603 409.857 38.4826C407.798 39.9833 405.954 41.7648 403.967 43.3779C395.97 49.8177 387.63 50.7037 378.141 46.2452C360.863 38.13 343.64 29.6966 325.779 23.0446C288.014 8.98583 248.636 2.25902 208.421 0.415076C147.456 -2.39645 89.1636 9.11994 33.4016 33.5935C24.5987 37.4592 16.6021 43.2188 8.37384 48.3388C6.39458 49.5618 4.8144 51.5586 3.38582 53.4431C-1.41066 59.7051 -1.2272 66.1666 4.67863 71.3896C49.8261 111.376 99.874 141.743 161.246 148.554C220.736 155.144 278.692 148.788 334.055 124.97C349.235 118.452 363.8 110.465 378.62 103.098C383.329 100.758 388.013 98.356 392.57 95.7508C395.34 94.1627 396.585 95.0082 398.213 97.526C402.722 104.465 407.104 111.591 412.451 117.853C423.065 130.28 436.712 135.041 452.834 131.294C464.246 128.651 469.29 120.798 467.399 109.307C465.364 97.0144 458.747 87.1956 450.216 78.1319Z" fill="#ffffff" fill-opacity="0.7"/>
</symbol><symbol id="feesh" viewBox="0 0 484 151">
<path fill-rule="evenodd" clip-rule="evenodd" d="M370.831 52.0516C380.073 63.084 378.013 91.5917 367.638 99.4824C361.868 83.1801 363.895 67.7079 370.831 52.0516ZM329.211 117.213C320.711 99.2421 324.462 47.9706 331.414 34.8633C345.093 53.0594 344.063 96.5651 329.211 117.213ZM91.0073 43.8584C102.532 43.8334 110.64 52.1171 110.648 63.9077C110.656 75.5205 102.164 84.2347 90.9673 84.0974C79.7463 83.9695 71.7893 75.6952 71.7175 64.1136C71.6377 52.1015 79.475 43.8834 91.0073 43.8584ZM285.58 19.65C308.461 50.4073 303.592 109.338 282.555 131.509C283.569 94.25 284.558 57.5397 285.58 19.65ZM154.111 12.2275C181.989 52.6195 174.271 111.669 151.159 136.358C157.168 94.3218 155.676 53.2996 154.111 12.2275ZM234.343 138.451C241.869 96.2001 242.316 54.3698 242.212 11.2541C265.005 43.0753 262.834 110.87 234.343 138.451ZM194.111 139.64C198.046 96.5651 205.181 53.5461 197.04 10.1745C225.723 42.108 221.829 102.74 194.111 139.64ZM450.216 78.1319C463.464 69.9918 473.496 59.4242 480.192 45.9738C489.011 28.2177 482.267 16.8139 462.499 15.073C451.916 14.137 442.044 16.5019 433.193 21.8934C425.061 26.8386 417.575 32.8603 409.857 38.4826C407.798 39.9833 405.954 41.7648 403.967 43.3779C395.97 49.8177 387.63 50.7037 378.141 46.2452C360.863 38.13 343.64 29.6966 325.779 23.0446C288.014 8.98583 248.636 2.25902 208.421 0.415076C147.456 -2.39645 89.1636 9.11994 33.4016 33.5935C24.5987 37.4592 16.6021 43.2188 8.37384 48.3388C6.39458 49.5618 4.8144 51.5586 3.38582 53.4431C-1.41066 59.7051 -1.2272 66.1666 4.67863 71.3896C49.8261 111.376 99.874 141.743 161.246 148.554C220.736 155.144 278.692 148.788 334.055 124.97C349.235 118.452 363.8 110.465 378.62 103.098C383.329 100.758 388.013 98.356 392.57 95.7508C395.34 94.1627 396.585 95.0082 398.213 97.526C402.722 104.465 407.104 111.591 412.451 117.853C423.065 130.28 436.712 135.041 452.834 131.294C464.246 128.651 469.29 120.798 467.399 109.307C465.364 97.0144 458.747 87.1956 450.216 78.1319Z" fill="#FAB751" fill-opacity="0.15"/>
</symbol><symbol id="icon-cat" viewBox="0 0 91 91">
<rect width="91" height="91" rx="45.5" fill="#FAC663"/>
<path d="M68.5772 30.7932C68.2458 30.5281 67.7814 30.4649 67.3651 30.5903C65.8165 31.0563 64.6513 31.9845 64.091 32.5001C63.0564 32.2052 61.9379 32.2051 60.9032 32.5001C60.3361 31.9783 59.1494 31.0339 57.5728 30.5735C57.1028 30.4365 56.5932 30.5725 56.273 30.9292C56.0014 31.2317 55.9327 31.6494 56.0645 32.0236C56.4577 33.1398 57.0943 34.8982 57.3174 35.5133C57.2183 35.82 57.158 36.1417 57.1375 36.4728C57.118 36.7903 57.1238 37.0946 57.1518 37.386L56.7116 38.2518C56.4233 38.8192 55.8462 39.2129 55.1763 39.2985C52.74 39.6102 47.9977 40.2394 43.6087 40.9531C37.9279 41.8767 35.6774 42.4849 34.712 42.8586C33.8883 41.6977 32.7151 40.7523 31.3499 40.16C29.2765 39.2605 25.8076 37.3044 25.8709 34.3088C25.9282 31.5982 27.0335 29.9969 27.9506 29.1309C28.3422 28.7611 28.5477 28.2522 28.5142 27.7346C28.4808 27.216 28.2107 26.7323 27.7731 26.4075C26.9267 25.7794 25.7172 25.8889 25.0196 26.6566C22.6974 29.2119 22.1413 32.7504 22.0164 34.6322C21.8905 36.5292 22.4912 38.2843 23.8019 39.8489C24.7418 40.9708 26.0247 41.9707 27.615 42.8206C29.1569 43.6446 30.2712 44.9597 30.753 46.5238C30.7954 46.6613 30.8154 46.8039 30.8124 46.9469L30.7971 47.6698C30.7895 48.0234 30.7593 48.3762 30.7064 48.7265L30.178 52.2247C29.9707 53.5974 29.0211 54.7517 27.6922 55.3855C26.7689 55.8259 26.2411 56.7634 26.3792 57.718L27.3449 64.3962C27.3949 64.7419 27.713 65 28.089 65H32.0613C32.2218 65 32.3821 64.9604 32.5129 64.8741C32.7799 64.698 32.8879 64.3944 32.8049 64.1172L32.7621 63.974C32.4502 62.9322 31.596 62.1345 30.5103 61.8277L30.3236 60.399C30.2712 59.9984 30.5165 59.6154 30.9207 59.4662L34.7157 58.0662C34.7151 58.1035 34.7137 58.1404 34.7109 58.1762C34.7106 58.1805 34.7103 58.1849 34.71 58.1892C34.6726 58.8496 34.6446 59.4444 34.6267 59.9572C34.602 60.6613 34.8921 61.343 35.4291 61.8411L38.6144 64.7959C38.7552 64.9266 38.9461 64.9999 39.1452 64.9999H43.7506C44.1468 64.9999 44.4809 64.6992 44.5022 64.3322C44.5766 63.0554 43.6076 61.9501 42.2432 61.7583L40.9262 61.5733L40.3821 60.7803C40.1148 60.3905 40.1235 59.8923 40.4044 59.5107L43.9965 54.6313C45.0882 54.3186 49.6923 53.0839 52.3922 53.6688C52.4277 53.9985 52.5258 54.3211 52.6839 54.6225L57.9208 64.6082C58.0464 64.8478 58.3086 64.9999 58.5959 64.9999H62.1578C62.3157 64.9999 62.4732 64.9619 62.6029 64.8786C62.8688 64.7079 62.9815 64.4105 62.9071 64.1347L62.6653 63.2375C62.4319 62.3715 61.7349 61.7072 60.8561 61.4475L61.7283 54.4093C61.7647 54.1155 61.8588 53.8309 62.0066 53.569C62.5489 52.6076 63.6143 50.7596 64.6485 49.1994C65.4613 47.9733 65.9842 46.5636 66.1606 45.1225C66.429 42.93 66.9553 40.1295 67.0857 39.448C67.6637 38.6804 67.9299 37.6644 67.8565 36.4727C67.8361 36.1416 67.7757 35.8199 67.6767 35.5132C67.9017 34.893 68.5471 33.11 68.9395 31.9954C69.0913 31.5643 68.9527 31.0937 68.5772 30.7932ZM30.3658 58.172C29.329 58.5545 28.6987 59.5392 28.8331 60.5666L29.0841 62.488C29.1258 62.8071 29.3975 63.0583 29.7416 63.0958C30.1779 63.1434 30.5687 63.3282 30.8598 63.607H28.7458L27.8674 57.5327C27.8136 57.1608 28.0192 56.7956 28.3788 56.624C30.0462 55.8285 31.2312 54.3731 31.6104 52.6826C32.9614 54.1605 33.9247 55.5571 34.3932 56.6861L30.3658 58.172ZM63.3696 48.4698C62.3123 50.0646 61.229 51.9433 60.6774 52.9212C60.4426 53.3373 60.2944 53.7845 60.2366 54.2502L59.8251 57.5715L58.9185 53.4081C58.8326 53.0136 58.9307 52.6014 59.1877 52.2772L61.256 49.6678C62.3993 48.2255 62.9195 46.4504 62.7209 44.6695C62.6782 44.2869 62.3091 44.009 61.8969 44.0485C61.4845 44.088 61.1847 44.4303 61.2274 44.8128C61.3876 46.2486 60.9682 47.6798 60.0464 48.8427L57.9781 51.4521C57.471 52.0919 57.2773 52.9053 57.4467 53.6839L59.2932 62.1625C59.364 62.4874 59.6718 62.721 60.0291 62.721C60.5881 62.721 61.0733 63.0724 61.2089 63.5755L61.2175 63.6074H59.0656L54.034 54.0131C53.9059 53.7688 53.8555 53.497 53.8883 53.227L54.6328 47.0981C54.6793 46.7159 54.3829 46.3712 53.9709 46.3282C53.5583 46.2853 53.1873 46.56 53.1409 46.9422L52.4939 52.2686C50.0435 51.8384 46.6758 52.5041 44.7632 52.977C44.9182 52.0429 44.6649 51.0678 44.0093 50.2823L42.9124 48.968C42.6585 48.6639 42.1871 48.6082 41.8592 48.8437C41.5313 49.0791 41.4713 49.5166 41.7251 49.8207L42.8221 51.135C43.4355 51.87 43.468 52.8796 42.9029 53.6473L39.1645 58.7253C38.5444 59.5675 38.5251 60.6677 39.1154 61.5281L39.8427 62.5883C39.9592 62.7581 40.1492 62.8728 40.3636 62.903L42.0182 63.1355C42.3574 63.1831 42.6406 63.3604 42.8153 63.6072H39.4561L36.4908 60.8564C36.2486 60.6318 36.1162 60.3206 36.1273 60.0026C36.1448 59.5005 36.1724 58.9172 36.2091 58.2685C36.3755 56.039 34.0268 53.1494 32.6109 51.6244C32.3614 51.3556 32.228 51.0136 32.2355 50.6612L32.3202 46.654C32.3217 46.5847 32.1966 46.1412 32.1966 46.1412C31.6071 44.2272 30.2462 42.6194 28.3644 41.6138C24.1283 39.3499 23.3891 36.6142 23.5149 34.7178C23.7792 30.7337 25.2902 28.5195 26.1675 27.5543C26.3363 27.3686 26.6296 27.3425 26.835 27.4951C26.9808 27.6033 27.0106 27.7437 27.0153 27.8178C27.02 27.8912 27.0087 28.0327 26.8794 28.1548C25.7714 29.201 24.4366 31.1131 24.3695 34.2815C24.2896 38.0647 28.3099 40.3789 30.7136 41.4216C32.0017 41.9803 33.08 42.9238 33.7498 44.0782C33.7498 44.0782 33.7848 44.1383 33.7917 44.1489C33.9022 44.3198 34.087 44.439 34.2982 44.4756C34.5126 44.5128 34.7346 44.4614 34.9051 44.3351C35.6866 43.7564 41.5181 42.4514 55.3817 40.6781C56.3741 40.5512 57.243 40.0428 57.7953 39.2886C57.9344 39.4966 58.0935 39.6892 58.2746 39.8629C59.035 40.5922 60.1249 40.9753 61.4327 40.9753C61.4815 40.9753 63.4013 40.9738 63.4013 40.9738C63.4056 40.9738 63.4099 40.9738 63.4142 40.9737C64.1202 40.9889 64.765 40.8939 65.3327 40.6959C65.1189 41.8967 64.8418 43.552 64.6687 44.9652C64.5171 46.2047 64.0678 47.4165 63.3696 48.4698ZM66.1803 35.2713C66.119 35.4258 66.1179 35.5974 66.1814 35.7552C66.281 36.0029 66.3403 36.2711 66.3576 36.5521C66.4205 37.5742 66.1725 38.3842 65.6403 38.8947C65.1502 39.3648 64.3905 39.6019 63.4442 39.5813C63.4368 39.5811 63.4297 39.5811 63.4226 39.5811C63.4155 39.5811 61.5624 39.5795 61.5274 39.5818C60.5916 39.5976 59.8403 39.3612 59.3538 38.8947C58.8216 38.3843 58.5735 37.5743 58.6365 36.5523C58.6538 36.2714 58.7132 36.0032 58.8128 35.7553C58.8755 35.5989 58.875 35.4289 58.8153 35.2756C58.8147 35.2741 58.8142 35.2726 58.8136 35.2709C58.7421 35.0739 58.1266 33.3785 57.6694 32.0931C59.1354 32.6868 60.1075 33.7455 60.1173 33.7563C60.3285 33.9915 60.6808 34.071 60.9852 33.9524C61.9461 33.5773 63.0482 33.5773 64.0089 33.9524C64.3119 34.0706 64.6639 33.991 64.8756 33.7576C64.8864 33.7457 65.8587 32.6868 67.3247 32.0931C66.8671 33.3796 66.2509 35.0773 66.1803 35.2713Z" fill="#FFFDFB"/>
<path d="M58.8136 35.2709L58.8153 35.2756C59.2561 34.125 59.2561 34.125 60.1173 33.7563C60.1075 33.7455 59.1354 32.6868 57.6694 32.0931C58.1266 33.3785 58.7421 35.0739 58.8136 35.2709Z" fill="#FFFDFB"/>
<path d="M67.3247 32.0931C65.8587 32.6868 64.8864 33.7457 64.8756 33.7576C66.1199 34.1208 66.134 34.3897 66.1787 35.2418L66.1803 35.2713C66.2509 35.0773 66.8671 33.3796 67.3247 32.0931Z" fill="#FFFDFB"/>
<path d="M26.1675 27.5543C25.2902 28.5195 23.7792 30.7337 23.5149 34.7178L24.3695 34.2815C24.4366 31.1131 25.7714 29.201 26.8794 28.1548C27.0087 28.0327 27.02 27.8912 27.0153 27.8178C27.0106 27.7437 26.9808 27.6033 26.835 27.4951C26.6296 27.3425 26.3363 27.3686 26.1675 27.5543Z" fill="#FFFDFB"/>
</symbol><symbol id="icon-doctor" viewBox="0 0 91 91">
<rect width="91" height="91" rx="45.5" fill="#FAC663"/>
<path d="M40.0743 37.7748C39.8228 38.3679 39.6971 38.9946 39.7005 39.6378C39.7074 40.9303 40.2468 42.1561 41.2193 43.0896C42.1922 44.0233 43.4889 44.5591 44.8705 44.5983C45.9488 44.6283 47.012 44.3517 47.9137 43.8114C48.7705 44.3248 49.7728 44.6007 50.7959 44.6007C50.8495 44.6007 50.9032 44.5999 50.957 44.5984C52.3246 44.5597 53.612 44.0328 54.5821 43.1151C55.552 42.1974 56.1004 40.9876 56.1261 39.7084C56.1423 38.9084 55.9616 38.1408 55.5891 37.4271C55.2482 36.7739 52.4888 33.9443 51.5131 32.907C51.2686 32.6471 51.9251 33.5556 51.6474 33.7841C51.3695 34.0125 50.465 33.6497 50.7093 33.9095C51.5925 34.8486 54.1009 37.433 54.3847 37.9767C54.6633 38.5104 54.7984 39.0851 54.7863 39.6848C54.7461 41.6774 53.0462 43.2856 50.9164 43.346C49.9822 43.3731 49.0619 43.0902 48.3277 42.551C48.0847 42.3726 47.7428 42.3726 47.4998 42.551C46.7656 43.0902 45.8454 43.3725 44.9111 43.346C42.7875 43.2858 41.0511 41.6195 41.0405 39.6317C41.0379 39.1495 41.1319 38.6801 41.3199 38.2366C41.7546 37.2115 42.6945 36.0524 44.4628 34.361C46.124 32.772 48.8093 32.5779 50.7093 33.9095C51.0054 34.117 51.4254 34.0609 51.6474 33.7841C51.8693 33.5072 51.8092 33.1146 51.5131 32.907C49.0771 31.1996 45.6341 31.4481 43.5045 33.4851C41.579 35.3268 40.5852 36.5697 40.0743 37.7748Z" fill="#FFFDFB"/>
<path d="M44.3773 31.4757C46.0994 31.4757 47.5003 29.7989 47.5003 27.7379C47.5003 25.6769 46.0994 24 44.3773 24C42.6553 24 41.2543 25.6767 41.2543 27.7378C41.2543 29.7989 42.6553 31.4757 44.3773 31.4757ZM44.3773 25.253C45.3437 25.253 46.1602 26.3909 46.1602 27.7378C46.1602 29.0847 45.3437 30.2226 44.3773 30.2226C43.411 30.2226 42.5944 29.0847 42.5944 27.7378C42.5945 26.3909 43.411 25.253 44.3773 25.253Z" fill="#FFFDFB"/>
<path d="M44.3773 25.253C45.3437 25.253 46.1602 26.3909 46.1602 27.7378C46.1602 29.0847 45.3437 30.2226 44.3773 30.2226C43.411 30.2226 42.5944 29.0847 42.5944 27.7378C42.5945 26.3909 43.411 25.253 44.3773 25.253Z" fill="#FFFDFB"/>
<path d="M37.9787 35.9551C39.3684 35.9551 40.457 34.6725 40.457 33.0351C40.457 31.3977 39.3684 30.1151 37.9787 30.1151C36.589 30.1151 35.5005 31.3977 35.5005 33.0351C35.5005 34.6725 36.589 35.9551 37.9787 35.9551ZM37.9787 31.3681C38.5957 31.3681 39.1169 32.1315 39.1169 33.0351C39.1169 33.9388 38.5957 34.7022 37.9787 34.7022C37.3618 34.7022 36.8406 33.9388 36.8406 33.0351C36.8406 32.1315 37.3618 31.3681 37.9787 31.3681Z" fill="#FFFDFB"/>
<path d="M37.9787 31.3681C38.5957 31.3681 39.1169 32.1315 39.1169 33.0351C39.1169 33.9388 38.5957 34.7022 37.9787 34.7022C37.3618 34.7022 36.8406 33.9388 36.8406 33.0351C36.8406 32.1315 37.3618 31.3681 37.9787 31.3681Z" fill="#FFFDFB"/>
<path d="M57.5937 35.9551C58.9834 35.9551 60.072 34.6725 60.072 33.0351C60.072 31.3977 58.9834 30.1151 57.5937 30.1151C56.204 30.1151 55.1155 31.3977 55.1155 33.0351C55.1155 34.6725 56.204 35.9551 57.5937 35.9551ZM57.5937 31.3681C58.2107 31.3681 58.7319 32.1315 58.7319 33.0351C58.7319 33.9388 58.2107 34.7022 57.5937 34.7022C56.9768 34.7022 56.4556 33.9388 56.4556 33.0351C56.4556 32.1315 56.9768 31.3681 57.5937 31.3681Z" fill="#FFFDFB"/>
<path d="M57.5937 31.3681C58.2107 31.3681 58.7319 32.1315 58.7319 33.0351C58.7319 33.9388 58.2107 34.7022 57.5937 34.7022C56.9768 34.7022 56.4556 33.9388 56.4556 33.0351C56.4556 32.1315 56.9768 31.3681 57.5937 31.3681Z" fill="#FFFDFB"/>
<path d="M52.2188 31.4757C53.9409 31.4757 55.3419 29.7989 55.3419 27.7379C55.3419 25.6769 53.9409 24 52.2188 24C50.4968 24 49.0958 25.6767 49.0958 27.7378C49.0958 29.7989 50.4968 31.4757 52.2188 31.4757ZM52.2188 25.253C53.1852 25.253 54.0018 26.3909 54.0018 27.7378C54.0018 29.0847 53.1853 30.2226 52.2188 30.2226C51.2524 30.2226 50.4359 29.0847 50.4359 27.7378C50.4359 26.3909 51.2523 25.253 52.2188 25.253Z" fill="#FFFDFB"/>
<path d="M52.2188 25.253C53.1852 25.253 54.0018 26.3909 54.0018 27.7378C54.0018 29.0847 53.1853 30.2226 52.2188 30.2226C51.2524 30.2226 50.4359 29.0847 50.4359 27.7378C50.4359 26.3909 51.2523 25.253 52.2188 25.253Z" fill="#FFFDFB"/>
<path d="M64.9483 43.9384C64.269 43.3034 63.3659 42.9535 62.4052 42.9535C61.4446 42.9535 60.5413 43.3034 59.862 43.9384L55.9184 47.6255C55.26 46.9476 54.3102 46.5212 53.2559 46.5212H47.6072C47.2372 46.5212 48.3143 46.8017 48.3143 47.1477C48.3143 47.4936 47.2372 47.7741 47.6072 47.7741H53.2559C54.5002 47.7741 55.5125 48.7206 55.5125 49.884C55.5125 51.0473 54.5002 51.9938 53.2559 51.9938H47.6072C47.2372 51.9938 46.9372 52.2743 46.9372 52.6203C46.9372 52.9663 47.2372 53.2468 47.6072 53.2468H53.2559C55.2391 53.2468 56.8526 51.7383 56.8526 49.884C56.8526 49.4777 56.775 49.088 56.6332 48.7272C56.6409 48.7206 56.6489 48.7145 56.6563 48.7076L60.8096 44.8244C61.6894 44.0018 63.121 44.0018 64.0008 44.8244C64.8806 45.6471 64.8806 46.9855 64.0008 47.8081L55.6742 55.5933H47.9949C47.6249 55.5933 48.3143 55.8738 48.3143 56.2198C48.3143 56.5658 47.9443 56.8463 48.3143 56.8463H55.9518C56.1294 56.8463 56.2999 56.7803 56.4255 56.6628L64.9483 48.6941C66.3506 47.3831 66.3506 45.2497 64.9483 43.9384Z" fill="#FFFDFB"/>
<path d="M48.4859 55.5934H45.4355C45.2592 55.5934 45.09 55.6583 44.9646 55.7742L42.8577 57.7198L37.7092 52.9061C37.6106 52.5627 37.5608 52.208 37.5608 51.8495C37.5608 49.608 39.5111 47.7844 41.9086 47.7844C41.9482 47.7844 41.9869 47.7806 42.0247 47.7744H47.9142C48.2842 47.7744 48.5842 47.4939 48.5842 47.1479C48.5842 46.8019 48.2842 46.5214 47.9142 46.5214H41.3785C41.2701 46.5214 41.168 46.546 41.0775 46.5888C38.3914 46.9582 36.3115 49.0892 36.2252 51.6822L35.6836 51.1759C35.422 50.9312 34.9977 50.9312 34.7361 51.1759L31.186 54.4952C31.1631 54.5165 31.143 54.5393 31.1243 54.5628L25.1809 60.7796C25.0714 60.8941 25.0107 61.0423 25.0105 61.1959L25 66.3436C24.9993 66.6894 25.2983 66.9703 25.6682 66.9713L36.7102 67H36.7121C36.8898 67 37.0602 66.934 37.1859 66.8165L44.3252 60.1413C44.4509 60.0239 44.5215 59.8645 44.5215 59.6983C44.5215 59.5322 44.4509 59.3728 44.3252 59.2554L43.7175 58.6872L45.7108 56.8465H48.4862C48.8562 56.8465 49.1562 56.566 49.1562 56.22C49.1559 55.8739 48.8559 55.5934 48.4859 55.5934ZM36.4351 65.7462L26.3412 65.7199L26.3499 61.4366L31.6893 55.8517L39.3535 63.0176L36.4351 65.7462ZM40.3419 62.0934L32.6481 54.8998L35.2098 52.5047L42.9036 59.6983L40.3419 62.0934Z" fill="#FFFDFB"/>
</symbol><symbol id="icon-facebook" viewBox="0 0 22 22">
<circle cx="11" cy="11" r="11" fill="#FFFDFB"/>
<path d="M22 11C22 4.9258 17.0742 0 11 0C4.9258 0 0 4.9258 0 11C0 17.0742 4.9258 22 11 22C11.0646 22 11.1289 21.9987 11.1934 21.9975V13.4344H8.83008V10.6803H11.1934V8.6535C11.1934 6.30298 12.6283 5.02365 14.725 5.02365C15.7291 5.02365 16.5921 5.09851 16.8438 5.13191V7.58852H15.3979C14.2572 7.58852 14.0363 8.13066 14.0363 8.92609V10.6803H16.7639L16.4084 13.4344H14.0363V21.575C18.6342 20.2569 22 16.021 22 11Z" fill="#1A212F"/>
</symbol><symbol id="icon-food" viewBox="0 0 91 91">
<rect width="91" height="91" rx="45.5" fill="#FAC663"/>
<path d="M47.1588 46.617C50.4341 46.617 53.1139 50.0596 53.1139 50.9203C53.1139 51.7809 50.4341 54.6498 47.1588 54.6498C43.8835 54.6498 41.5015 50.9203 41.5015 50.9203C41.5015 50.9203 43.8835 46.617 47.1588 46.617Z" fill="#FFFDFB"/>
<path d="M37.9285 47.4777L41.5015 50.9203M41.5015 50.9203L37.9285 54.3629M41.5015 50.9203C41.5015 50.9203 43.8835 54.6498 47.1588 54.6498C50.4341 54.6498 53.1139 51.7809 53.1139 50.9203C53.1139 50.0596 50.4341 46.617 47.1588 46.617C43.8835 46.617 41.5015 50.9203 41.5015 50.9203Z" stroke="#FFFDFB" stroke-width="2" stroke-linecap="round" stroke-linejoin="round"/>
<path d="M68.1632 38.9608L68.1632 38.9608C68.0925 38.4839 67.6601 38.1044 67.1209 38.1044H63.0462H62.6487L62.559 37.7172C61.9084 34.9062 59.3392 34.0633 59.0435 33.9687L58.8469 33.9058L58.7519 33.7226C57.3626 31.0414 54.4927 30.9067 54.1708 30.896L53.968 30.8892L53.8273 30.743C52.129 28.979 49.8295 28.9614 48.5968 29.2663L48.4022 29.3145L48.2282 29.2148C47.1355 28.5888 44.922 27.9826 42.7716 29.2148L42.5976 29.3145L42.403 29.2664C41.1699 28.9614 38.87 28.9794 37.1721 30.743L37.0314 30.8891L36.8287 30.896C36.51 30.9067 33.636 31.0415 32.2475 33.7228L32.1525 33.9063L31.9557 33.9692C31.6555 34.0651 29.0891 34.9121 28.4403 37.7171L28.3508 38.1044H27.9532H23.8789C23.3397 38.1044 22.9073 38.4839 22.8365 38.9608L22.8365 38.9608L19.5103 61.3679L19.5102 61.3681C19.4688 61.6463 19.5542 61.9315 19.7511 62.1502M68.1632 38.9608L19.7511 62.1502M68.1632 38.9608L71.4899 61.3677C71.5311 61.646 71.4456 61.9313 71.2489 62.1499M68.1632 38.9608L71.2489 62.1499M19.7511 62.1502C19.9487 62.3695 20.2406 62.5 20.5527 62.5H70.4471C70.759 62.5 71.0507 62.3696 71.2489 62.1499M19.7511 62.1502L71.2489 62.1499M34.3379 34.1397L34.3378 34.1399C34.1209 34.9191 33.4486 35.4823 32.647 35.5937C32.6403 35.5973 32.6318 35.602 32.6216 35.6081C32.5692 35.6391 32.4953 35.6894 32.402 35.7602C32.2166 35.9008 31.9823 36.1014 31.7355 36.3367C31.4826 36.5779 31.2297 36.843 31.0094 37.1048H60.0638C59.8586 36.7983 59.6393 36.4997 59.4358 36.2409C59.2527 36.0081 59.088 35.8146 58.9641 35.6819C58.9242 35.6391 58.8911 35.6055 58.8651 35.5804C58.101 35.4429 57.4668 34.8921 57.2578 34.1397L34.3379 34.1397ZM34.3379 34.1397C34.4343 33.7927 34.846 33.3951 35.4877 33.0942C36.1136 32.8007 36.7868 32.6817 37.2017 32.7494C38.0218 32.8833 38.8537 32.5229 39.2939 31.8217C39.5066 31.4833 39.9311 31.1923 40.4494 31.0448C40.9665 30.8977 41.4934 30.9175 41.8759 31.0979C42.6272 31.4523 43.5283 31.3299 44.151 30.7816C44.4584 30.511 44.9562 30.3473 45.4991 30.347C46.0421 30.3467 46.5404 30.5098 46.8492 30.7817C47.472 31.33 48.3726 31.4522 49.1242 31.0979L49.1243 31.0979M34.3379 34.1397L49.1243 31.0979M49.1243 31.0979C49.492 30.9245 50.1666 30.8921 50.8671 31.0493C51.2054 31.1252 51.5217 31.2397 51.7789 31.3809C52.0406 31.5245 52.2121 31.6796 52.3014 31.8218M49.1243 31.0979L54.3943 32.7493M54.3943 32.7493L54.3939 32.7494C53.5742 32.8828 52.7423 32.5237 52.3014 31.8218M54.3943 32.7493C54.8175 32.6801 55.491 32.8029 56.1152 33.099M54.3943 32.7493L56.1152 33.099M52.3014 31.8218L52.7248 31.5558L52.3015 31.8218C52.3014 31.8218 52.3014 31.8218 52.3014 31.8218ZM56.1152 33.099C56.7558 33.4028 57.1637 33.8013 57.2578 34.1396L56.1152 33.099ZM32.4816 34.6067L32.4815 34.6067C32.326 34.6244 32.1848 34.7045 32.1116 34.7479C32.0148 34.8053 31.9078 34.8799 31.7976 34.9635C31.5758 35.1317 31.3127 35.3581 31.0454 35.613C30.5197 36.1143 29.9275 36.7737 29.6049 37.3655L29.202 38.1048H30.044H60.9554H61.7979L61.3943 37.3653C61.0646 36.7611 60.6099 36.1162 60.2218 35.6228C60.0272 35.3753 59.8438 35.1589 59.6952 34.9996C59.6218 34.921 59.5502 34.849 59.4857 34.7927C59.4542 34.7651 59.4155 34.7334 59.373 34.7052L59.3712 34.704C59.3458 34.6871 59.2479 34.622 59.1139 34.6067L59.1137 34.6067C58.6754 34.557 58.3284 34.2575 58.2213 33.872L58.2213 33.8719C58.0076 33.1031 57.2604 32.5354 56.5438 32.1955C55.811 31.8478 54.9256 31.6492 54.2332 31.7624C53.7953 31.8336 53.3673 31.6386 53.1482 31.2899L53.1482 31.2898C52.9373 30.9542 52.6099 30.6963 52.2601 30.5043C51.9059 30.3098 51.4981 30.166 51.086 30.0735C50.2855 29.8939 49.3535 29.8843 48.6978 30.1934C48.3019 30.38 47.8294 30.3123 47.51 30.0311L47.51 30.031C46.97 29.5557 46.2116 29.3466 45.4986 29.347C44.7857 29.3474 44.0283 29.5573 43.4902 30.0311L43.4902 30.0311C43.1707 30.3124 42.6978 30.3799 42.3024 30.1934L42.3024 30.1934C41.6469 29.8843 40.8604 29.8882 40.1757 30.083C39.4922 30.2774 38.8264 30.6862 38.4471 31.2898L38.447 31.29C38.2281 31.6385 37.8001 31.8339 37.3628 31.7624L37.3625 31.7624C36.6813 31.6514 35.7979 31.8443 35.0631 32.1888C34.3441 32.526 33.5911 33.0926 33.3744 33.8717C33.267 34.2576 32.9201 34.557 32.4816 34.6067ZM32.6677 35.5833C32.6677 35.5833 32.6672 35.5835 32.6662 35.5839L32.6677 35.5833ZM20.0619 61.6576L19.9744 62.2328H20.5562H70.4435H71.0254L70.9378 61.6576L67.4593 38.7964L67.3946 38.3716H66.965H24.0348H23.6051L23.5405 38.7964L20.0619 61.6576Z" fill="#FFFDFB" stroke="#FFFDFB" stroke-width="0.999999"/>
</symbol><symbol id="icon-instagram" viewBox="0 0 22 22">
<circle cx="11" cy="11" r="11" fill="#FFFDFB"/>
<path d="M13.1055 11C13.1055 12.1628 12.1628 13.1055 11 13.1055C9.83716 13.1055 8.89453 12.1628 8.89453 11C8.89453 9.83716 9.83716 8.89453 11 8.89453C12.1628 8.89453 13.1055 9.83716 13.1055 11Z" fill="#1A212F"/>
<path d="M15.924 7.27487C15.8227 7.00061 15.6613 6.75236 15.4515 6.54859C15.2477 6.33879 14.9996 6.17732 14.7252 6.07611C14.5026 5.98967 14.1683 5.88678 13.5524 5.85874C12.8863 5.82836 12.6865 5.82182 11 5.82182C9.31331 5.82182 9.11357 5.8282 8.44756 5.85858C7.83173 5.88678 7.49721 5.98967 7.27481 6.07611C7.00038 6.17732 6.75214 6.33879 6.54854 6.54859C6.33873 6.75236 6.17726 7.00044 6.07588 7.27487C5.98944 7.49743 5.88655 7.83195 5.85852 8.44778C5.82814 9.1138 5.82159 9.31353 5.82159 11.0002C5.82159 12.6867 5.82814 12.8865 5.85852 13.5527C5.88655 14.1685 5.98944 14.5028 6.07588 14.7254C6.17726 14.9998 6.33856 15.2479 6.54837 15.4517C6.75214 15.6615 7.00021 15.823 7.27464 15.9242C7.49721 16.0108 7.83173 16.1137 8.44756 16.1417C9.11357 16.1721 9.31314 16.1785 10.9998 16.1785C12.6867 16.1785 12.8864 16.1721 13.5523 16.1417C14.1681 16.1137 14.5026 16.0108 14.7252 15.9242C15.2761 15.7117 15.7115 15.2763 15.924 14.7254C16.0104 14.5028 16.1133 14.1685 16.1415 13.5527C16.1719 12.8865 16.1782 12.6867 16.1782 11.0002C16.1782 9.31353 16.1719 9.1138 16.1415 8.44778C16.1134 7.83195 16.0106 7.49743 15.924 7.27487ZM11 14.2435C9.20857 14.2435 7.75636 12.7915 7.75636 11.0001C7.75636 9.20863 9.20857 7.75659 11 7.75659C12.7913 7.75659 14.2435 9.20863 14.2435 11.0001C14.2435 12.7915 12.7913 14.2435 11 14.2435ZM14.3717 8.38635C13.9531 8.38635 13.6137 8.04696 13.6137 7.62835C13.6137 7.20974 13.9531 6.87036 14.3717 6.87036C14.7903 6.87036 15.1297 7.20974 15.1297 7.62835C15.1295 8.04696 14.7903 8.38635 14.3717 8.38635Z" fill="#1A212F"/>
<path d="M11 0C4.9258 0 0 4.9258 0 11C0 17.0742 4.9258 22 11 22C17.0742 22 22 17.0742 22 11C22 4.9258 17.0742 0 11 0ZM17.2783 13.6041C17.2478 14.2765 17.1408 14.7356 16.9847 15.1374C16.6566 15.9859 15.9859 16.6566 15.1374 16.9847C14.7358 17.1408 14.2765 17.2476 13.6043 17.2783C12.9307 17.309 12.7156 17.3164 11.0002 17.3164C9.28461 17.3164 9.0696 17.309 8.39586 17.2783C7.72363 17.2476 7.2644 17.1408 6.86275 16.9847C6.44112 16.8261 6.05943 16.5775 5.74388 16.2561C5.42262 15.9407 5.17404 15.5589 5.01543 15.1374C4.85933 14.7358 4.75241 14.2765 4.72186 13.6043C4.69081 12.9306 4.68359 12.7154 4.68359 11C4.68359 9.28461 4.69081 9.06943 4.72169 8.39586C4.75224 7.72346 4.85899 7.2644 5.01509 6.86258C5.17371 6.44112 5.42245 6.05927 5.74388 5.74388C6.05927 5.42245 6.44112 5.17387 6.86258 5.01526C7.2644 4.85916 7.72346 4.75241 8.39586 4.72169C9.06943 4.69098 9.28461 4.68359 11 4.68359C12.7154 4.68359 12.9306 4.69098 13.6041 4.72186C14.2765 4.75241 14.7356 4.85916 15.1374 5.01509C15.5589 5.17371 15.9407 5.42245 16.2563 5.74388C16.5775 6.05943 16.8263 6.44112 16.9847 6.86258C17.141 7.2644 17.2478 7.72346 17.2785 8.39586C17.3092 9.06943 17.3164 9.28461 17.3164 11C17.3164 12.7154 17.3092 12.9306 17.2783 13.6041Z" fill="#1A212F"/>
</symbol><symbol id="icon-taxi" viewBox="0 0 91 91">
<rect width="91" height="91" rx="45.5" fill="#FAC663"/>
<path d="M70.8329 47.5535C70.6102 47.3285 66.378 42.0399 57.1339 41.8711C56.2429 40.2958 52.846 35.176 47.333 35.176H47.166L44.7157 30.4501C44.5487 30.1688 44.2702 30 43.9918 30H40.2051C39.871 30 39.5925 30.1688 39.4811 30.4501L37.2537 35.1198H36.5297C36.307 35.1198 31.0724 34.726 25.6151 41.8149H21.3829C20.9931 41.8149 20.6589 42.0962 20.5476 42.49C20.4919 42.8276 18.8213 50.9292 21.6056 54.4174C22.4966 55.4864 23.666 56.049 25.1139 56.049H26.2833C26.6731 58.8621 29.0677 61 31.9634 61C34.8591 61 37.2537 58.8621 37.6435 56.049H53.9041C54.2939 58.8621 56.6884 61 59.5842 61C62.4799 61 64.8744 58.8621 65.2642 56.049H70.1647C70.6102 56.049 71 55.6552 71 55.2051V48.0599C71 47.8911 70.9443 47.6661 70.8329 47.5535ZM47.333 36.8076C51.2311 36.8076 53.9041 40.0708 55.1292 41.8711H43.0451V36.8076H47.333ZM40.7619 31.6878H43.4906L45.2726 35.176H42.2098H39.0913L40.7619 31.6878ZM36.474 36.8076H41.4302V41.8711H27.7869C32.2975 36.6388 36.3627 36.8076 36.474 36.8076ZM31.9634 59.3684C29.7359 59.3684 27.8982 57.5118 27.8982 55.2613C27.8982 53.0109 29.7359 51.1543 31.9634 51.1543C34.1909 51.1543 36.0285 53.0109 36.0285 55.2613C36.0842 57.5118 34.2466 59.3684 31.9634 59.3684ZM59.5842 59.3684C57.3567 59.3684 55.519 57.5118 55.519 55.2613C55.519 53.0109 57.3567 51.1543 59.5842 51.1543C61.8116 51.1543 63.6493 53.0109 63.6493 55.2613C63.6493 57.5118 61.8673 59.3684 59.5842 59.3684ZM69.3294 54.4174H65.2642C64.8744 51.6044 62.4799 49.4664 59.5842 49.4664C56.6884 49.4664 54.2939 51.6044 53.9041 54.4174H37.6435C37.2537 51.6044 34.8591 49.4664 31.9634 49.4664C29.0677 49.4664 26.6731 51.6044 26.2833 54.4174H25.1139C24.1672 54.4174 23.4433 54.0799 22.8864 53.4047C21.1601 51.2105 21.6056 46.0907 22.0511 43.559H26.0049H56.6327C64.3732 43.559 68.4384 47.441 69.3294 48.3975V54.4174Z" fill="#FFFDFB"/>
<path d="M40.7619 31.6878H43.4906L45.2726 35.176H42.2098H39.0913L40.7619 31.6878Z" fill="#FFFDFB"/>
<path d="M31.9634 59.3684C29.7359 59.3684 27.8982 57.5118 27.8982 55.2613C27.8982 53.0109 29.7359 51.1543 31.9634 51.1543C34.1909 51.1543 36.0285 53.0109 36.0285 55.2613C36.0842 57.5118 34.2466 59.3684 31.9634 59.3684Z" fill="#FFFDFB"/>
<path d="M59.5842 59.3684C57.3567 59.3684 55.519 57.5118 55.519 55.2613C55.519 53.0109 57.3567 51.1543 59.5842 51.1543C61.8116 51.1543 63.6493 53.0109 63.6493 55.2613C63.6493 57.5118 61.8673 59.3684 59.5842 59.3684Z" fill="#FFFDFB"/>
</symbol><symbol id="icon-temperature" viewBox="0 0 91 91">
<rect width="91" height="91" rx="45.5" fill="#FAC663"/>
<path d="M60.1806 30.6389C60.6331 30.6389 61 31.0058 61 31.4584C61 31.9109 60.6331 32.2778 60.1806 32.2778H52.8522C52.3996 32.2778 52.0328 31.9109 52.0328 31.4584C52.0328 31.0058 52.3996 30.6389 52.8522 30.6389H60.1806ZM57.2395 35.1568C57.2395 34.7042 56.8727 34.3374 56.4201 34.3374H52.8522C52.3996 34.3374 52.0328 34.7042 52.0328 35.1568C52.0328 35.6093 52.3996 35.9762 52.8522 35.9762H56.4201C56.8727 35.9762 57.2395 35.6093 57.2395 35.1568ZM52.0328 38.8552C52.0328 39.3077 52.3996 39.6746 52.8522 39.6746H60.1806C60.6331 39.6746 61 39.3077 61 38.8552C61 38.4026 60.6331 38.0358 60.1806 38.0358H52.8522C52.3996 38.0358 52.0328 38.4026 52.0328 38.8552ZM57.2395 42.5548C57.2395 42.1022 56.8727 41.7354 56.4201 41.7354H52.8522C52.3996 41.7354 52.0328 42.1022 52.0328 42.5548C52.0328 43.0073 52.3996 43.3742 52.8522 43.3742H56.4201C56.8727 43.3742 57.2395 43.0073 57.2395 42.5548ZM52.0328 46.2532C52.0328 46.7058 52.3996 47.0726 52.8522 47.0726H60.1806C60.6331 47.0726 61 46.7058 61 46.2532C61 45.8006 60.6331 45.4338 60.1806 45.4338H52.8522C52.3996 45.4338 52.0328 45.8006 52.0328 46.2532ZM53.4305 61.1337C53.4305 67.6769 48.1751 73 41.7153 73C35.2554 73 30 67.6769 30 61.1337C30 56.8934 32.1984 53.04 35.7853 50.9081V24.0064C35.7853 20.6944 38.4454 18 41.7153 18C44.9851 18 47.6452 20.6944 47.6452 24.0064V50.9081C51.2321 53.0376 53.4305 56.8923 53.4305 61.1337ZM51.8053 61.1337C51.8053 57.5357 49.8313 53.5783 46.6529 51.9434L46.02 51.6176V24.0076C46.02 21.9871 43.7089 19.64 41.7153 19.64C39.7216 19.64 37.4105 21.9871 37.4105 24.0076V51.6176L36.7776 51.9434C33.5992 53.5795 31.6252 57.5369 31.6252 61.1337C31.6252 66.3842 36.5316 71.3612 41.7153 71.3612C46.8989 71.3612 51.8053 66.3842 51.8053 61.1337ZM49.1887 61.1337C49.1887 65.3071 45.8367 68.7023 41.7153 68.7023C37.595 68.7023 34.2429 65.3071 34.2429 61.1337C34.2429 57.7127 37.2136 54.7089 40.4811 53.8287L40.9104 53.7127V40.0617C40.9104 39.6169 41.271 39.2563 41.7158 39.2563C42.1607 39.2563 42.5213 39.6169 42.5213 40.0617V53.7115L42.9506 53.8287C46.2193 54.7089 49.1887 57.7138 49.1887 61.1337ZM42.7444 56.0769C42.5663 55.2753 41.8002 55.4644 40.9891 55.6519C38.1566 56.3012 36.178 58.8104 36.178 61.7544C36.178 62.5877 36.178 63.4808 37.2333 63.4808C37.7931 63.4808 37.9222 62.5512 37.9222 61.7179C37.9222 60.2213 38.8368 57.9881 40.9891 57.4872C41.7897 57.3008 42.9249 56.8879 42.7444 56.0769Z" fill="#FFFDFB"/>
</symbol><symbol id="icon-video" viewBox="0 0 91 91">
<rect width="91" height="91" rx="45.5" fill="#FAC663"/>
<path d="M72.9987 41.6244C72.98 41.2178 72.7407 40.4641 71.3486 39.9845L34.2338 27.2097C32.3313 26.5545 30.22 27.4861 29.5275 29.2871L28.5228 31.9L26.2623 37.7792C25.5698 39.5803 26.5543 41.5787 28.4571 42.2343L39.2741 45.9568C39.0686 47.1404 39.4115 48.3097 40.1578 49.2043L37.8535 55.1969C37.7474 55.4727 37.4677 55.658 37.1573 55.658H30.4063V53.5725C30.4063 52.4226 29.418 51.487 28.2031 51.487H26.7344C26.3288 51.487 26 51.7983 26 52.1822V63.3048C26 63.6887 26.3288 64 26.7344 64H28.2031C29.418 64 30.4063 63.0644 30.4063 61.9145V59.829H37.1573C39.3134 59.829 41.2571 58.5405 41.994 56.6229L44.2498 50.7563C45.5407 50.5847 46.7139 49.8712 47.4103 48.7569L60.051 53.107C60.4642 53.2494 60.887 53.3169 61.3032 53.3169C62.5655 53.3168 63.7649 52.6957 64.4366 51.6589L65.8872 52.1587C66.051 52.2151 66.2209 52.2432 66.3902 52.2432C66.6016 52.2432 66.8123 52.1994 67.0096 52.1123C67.3649 51.9555 67.6344 51.677 67.7685 51.3284L69.7786 46.1006C70.023 45.4647 69.744 44.7679 69.1517 44.4332L71.5059 43.3941C72.8485 42.8015 73.0174 42.031 72.9987 41.6244ZM28.9375 61.9145C28.9375 62.2978 28.608 62.6097 28.2031 62.6097H27.4688V52.8774H28.2031C28.608 52.8774 28.9375 53.1892 28.9375 53.5725V61.9145ZM40.6138 56.1475C40.0872 57.5179 38.6981 58.4387 37.1573 58.4387H30.4063V57.0484H37.1573C38.0828 57.0484 38.9171 56.4954 39.2336 55.6725L41.3418 50.1899C41.5836 50.3274 41.8428 50.4455 42.118 50.5403C42.3133 50.6077 42.5104 50.6609 42.7079 50.7013L40.6138 56.1475ZM43.7264 49.4031C43.7094 49.403 43.6925 49.403 43.6756 49.404C43.3259 49.4084 42.969 49.354 42.6203 49.2338C42.2121 49.0932 41.8561 48.8767 41.5645 48.6071C41.5377 48.5763 41.5081 48.5478 41.4757 48.5216C40.9288 47.9702 40.6359 47.2216 40.6914 46.4446L45.9934 48.2692C45.4569 48.9666 44.6172 49.3771 43.7264 49.4031ZM68.3986 45.6251L66.3898 50.8523L65.0086 50.3764L66.9139 45.421L67.304 45.2489L68.3986 45.6251ZM70.8853 42.134L66.9595 43.8669L66.9583 43.8674L66.0181 44.2824L66.0171 44.2829L64.9148 44.7694C63.6212 45.3404 61.395 45.4323 60.0534 44.9701L31.91 35.2864C31.5289 35.1555 32.4875 35.8166 32.349 36.1774C32.2104 36.5382 31.0265 36.4617 31.4078 36.5929L59.5514 46.2768C60.2906 46.5315 61.2017 46.6555 62.1314 46.6555C63.1479 46.6555 64.1857 46.5065 65.0447 46.2179L63.3775 50.554C62.962 51.6347 61.6952 52.1938 60.5534 51.8004L28.9592 40.9278C27.8176 40.5345 27.227 39.3354 27.6424 38.2548L28.899 34.9868C29.318 35.5966 29.9412 36.0877 30.7174 36.3551L31.4078 36.5929C31.7885 36.7243 32.2103 36.5381 32.349 36.1774C32.4877 35.8167 32.2911 35.4177 31.91 35.2864L31.2198 35.0487C30.0784 34.6554 29.4876 33.4566 29.9028 32.376L30.1542 31.7223L30.9077 29.7626C31.3232 28.682 32.5899 28.1227 33.7317 28.5162L70.8464 41.2911C71.3179 41.4535 71.4923 41.6228 71.5277 41.6851C71.4982 41.7503 71.3401 41.9332 70.8853 42.134Z" fill="#FFFDFB"/>
<path d="M66.9595 43.8669L70.8853 42.134C71.3401 41.9332 71.4982 41.7503 71.5277 41.6851C71.4923 41.6228 71.3179 41.4535 70.8464 41.2911L33.7317 28.5162C32.5899 28.1227 31.3232 28.682 30.9077 29.7626L30.1542 31.7223L29.9028 32.376C29.4876 33.4566 30.0784 34.6554 31.2198 35.0487L31.91 35.2864L60.0534 44.9701C61.395 45.4323 63.6212 45.3404 64.9148 44.7694L66.0171 44.2829L66.0181 44.2824L66.9583 43.8674L66.9595 43.8669Z" fill="#FFFDFB"/>
</symbol><symbol id="icon-vk" viewBox="0 0 22 22">
<path d="M11 22C17.0751 22 22 17.0751 22 11C22 4.92487 17.0751 0 11 0C4.92487 0 0 4.92487 0 11C0 17.0751 4.92487 22 11 22Z" fill="#1A212F"/>
<path fill-rule="evenodd" clip-rule="evenodd" d="M10.5846 15.8244H11.448C11.448 15.8244 11.7088 15.7958 11.8419 15.6522C11.9645 15.5205 11.9606 15.273 11.9606 15.273C11.9606 15.273 11.9437 14.1145 12.4814 13.9439C13.0114 13.7759 13.692 15.0636 14.4134 15.5587C14.9589 15.9334 15.3734 15.8513 15.3734 15.8513L17.3023 15.8244C17.3023 15.8244 18.3114 15.7622 17.8329 14.9689C17.7937 14.904 17.5543 14.382 16.3988 13.3094C15.1893 12.1868 15.3513 12.3684 16.8082 10.4266C17.6955 9.24396 18.0502 8.52198 17.9394 8.21275C17.8337 7.91823 17.1811 7.99608 17.1811 7.99608L15.0093 8.00961C15.0093 8.00961 14.8483 7.98764 14.7289 8.05902C14.6122 8.12902 14.5371 8.29217 14.5371 8.29217C14.5371 8.29217 14.1934 9.2073 13.7349 9.98556C12.7679 11.6278 12.3812 11.7144 12.2231 11.6125C11.8555 11.3748 11.9472 10.6577 11.9472 10.1483C11.9472 8.55688 12.1886 7.89333 11.4772 7.72156C11.2411 7.6645 11.0674 7.62685 10.4637 7.62077C9.68872 7.61273 9.03282 7.62312 8.66143 7.80509C8.41436 7.92607 8.22377 8.19569 8.33985 8.21118C8.48338 8.2304 8.80849 8.29883 8.98085 8.53355C9.20341 8.8363 9.19557 9.51633 9.19557 9.51633C9.19557 9.51633 9.32342 11.3897 8.89693 11.6225C8.60417 11.7821 8.20259 11.4562 7.3404 9.96634C6.89862 9.20318 6.56508 8.35962 6.56508 8.35962C6.56508 8.35962 6.50077 8.20197 6.38606 8.11765C6.24683 8.01549 6.05232 7.98294 6.05232 7.98294L3.98852 7.99647C3.98852 7.99647 3.6787 8.0051 3.56497 8.13981C3.46379 8.25962 3.55693 8.50747 3.55693 8.50747C3.55693 8.50747 5.17268 12.2876 7.00216 14.1926C8.67967 15.9391 10.5846 15.8244 10.5846 15.8244Z" fill="#FFFDFB"/>
</symbol><symbol id="logo" viewBox="0 0 63 52">
<path d="M7.8994 48.4825C7.8188 47.5104 7.23843 46.5545 5.64243 46.4735C6.62583 46.3438 7.98001 44.0756 7.39964 42.3906C6.91601 41.0297 5.4651 41.5644 4.61067 41.8236C4.44946 43.1197 4.82025 45.5014 3.38546 45.8092C3.32097 45.1287 3.44994 43.9946 3.27261 42.8119C2.93406 40.8515 0.548122 41.7588 0 42.0018C0.209576 44.1728 0.177334 44.7561 0.177334 47.3646C0.193455 48.2556 0.0967274 49.6652 0.177334 50.4267C0.403031 52.4519 2.80509 51.9172 3.46606 51.2205C3.46606 50.3619 3.44994 48.6121 3.40158 47.64C4.46558 47.559 4.65904 47.8668 4.69128 50.135C4.7074 52.4033 7.38352 51.982 8.17346 51.2043C7.8994 50.3619 7.98001 49.2925 7.8994 48.4825Z" fill="#1A212F"/>
<path d="M9.29804 46.8137C9.29804 51.5122 11.7162 51.901 13.409 51.8524C14.9727 51.8524 17.536 51.415 17.5521 46.8137C17.536 42.8767 15.7949 41.4834 13.4573 41.4834C10.9908 41.4834 9.29804 43.0063 9.29804 46.8137ZM13.4573 44.1242C13.6347 44.1242 14.3117 43.865 14.3117 46.7003C14.3117 48.5473 14.0216 49.6004 13.4412 49.6004C12.9576 49.6004 12.5707 49.1629 12.619 46.7003C12.619 44.4645 13.1833 44.1242 13.4573 44.1242Z" fill="#1A212F"/>
<path d="M20.8692 44.4645C20.8692 45.388 20.8531 46.4087 20.9014 49.5518C20.9175 50.8155 20.9659 51.8524 22.4168 51.82C23.7065 51.82 24.0289 51.3016 24.174 51.1395C24.2224 49.73 24.1257 46.6517 24.0934 44.5131C24.4481 44.5131 24.7866 44.5131 25.0929 44.4969C26.1247 44.4645 26.4794 43.8488 26.4632 42.9901C26.4471 42.018 25.6572 41.4996 24.5609 41.4996H21.4979C19.0636 41.5158 18.9024 41.5158 18.7089 41.4996C18.2575 43.4114 18.5316 44.4321 20.3855 44.4645H20.8692Z" fill="#1A212F"/>
<path d="M33.1037 41.5644C31.9752 41.451 29.2507 41.4996 27.3645 41.5806C27.5741 43.7354 27.5902 46.5059 27.558 48.4663C27.5902 50.3457 27.429 51.658 29.3958 51.7876C30.6855 51.8848 31.411 51.8848 32.5717 51.7876C34.1516 51.658 34.7964 50.7993 34.0387 48.9199C32.7329 49.1143 31.5238 49.1629 30.7661 49.0171C30.7661 48.7903 30.7339 48.0774 30.7661 47.8992C31.4916 47.8992 32.2815 47.8668 32.9747 47.8668C34.4095 47.8668 34.2644 45.55 32.9586 45.55C32.0236 45.5014 31.6044 45.5986 30.7339 45.5176V44.2376C31.7173 44.1566 32.1525 44.2052 32.9747 44.2376C34.5224 44.2862 34.5224 41.8884 33.1037 41.5644Z" fill="#1A212F"/>
<path d="M38.1396 38.0324C37.0756 38.7291 37.14 39.7822 37.8977 40.414C38.7522 41.0297 40.4288 40.8353 41.5573 40.333C42.589 39.8632 42.992 38.7939 41.8958 38C40.2676 38.8587 39.1874 38.4212 38.1396 38.0324ZM43.8787 42.9415C43.8787 41.9694 43.2661 41.4996 42.2988 41.4996C41.1703 41.4996 40.59 41.7912 40.2514 42.8281C39.8484 44.0918 39.2519 46.036 38.9134 47.3808C38.9134 46.7975 39.0101 43.3627 39.0101 42.9415C39.0101 41.8722 38.4459 41.4996 37.4947 41.4996C36.8337 41.4996 35.6569 41.9208 35.6569 41.9208C35.7536 42.6499 35.8342 43.0711 35.8503 44.027C35.8826 45.0315 35.8503 46.6355 35.9471 49.811C35.9954 51.3664 36.4952 51.8848 37.7526 51.8362C40.0096 51.7552 40.1547 47.5752 40.7673 46.0522C40.7673 46.7489 40.7351 49.1629 40.7351 49.973C40.7351 51.0747 40.8318 51.8362 42.1054 51.8362C43.2016 51.8362 43.8303 51.4636 44.0238 51.1233C43.8948 50.6373 43.8465 47.6886 43.8465 45.3718C43.8465 44.351 43.8626 43.46 43.8787 42.9415Z" fill="#1A212F"/>
<path d="M53.2183 48.4825C53.1377 47.5104 52.5574 46.5545 50.9613 46.4735C51.9447 46.3438 53.2989 44.0756 52.7186 42.3906C52.2349 41.0297 50.784 41.5644 49.9296 41.8236C49.7684 43.1197 50.1392 45.5014 48.7044 45.8092C48.6399 45.1287 48.7689 43.9946 48.5915 42.8119C48.253 40.8515 45.867 41.7588 45.3189 42.0018C45.5285 44.1728 45.4963 44.7561 45.4963 47.3646C45.5124 48.2556 45.4156 49.6652 45.4963 50.4267C45.7219 52.4519 48.124 51.9172 48.785 51.2205C48.785 50.3619 48.7689 48.6121 48.7205 47.64C49.7845 47.559 49.978 47.8668 50.0102 50.135C50.0263 52.4033 52.7024 51.982 53.4924 51.2043C53.2183 50.3619 53.2989 49.2925 53.2183 48.4825Z" fill="#1A212F"/>
<path d="M63 51.1395C62.7743 50.5077 62.7904 50.1998 62.7421 49.2925C62.6131 46.9271 62.5808 44.6427 61.807 43.0711C60.5012 40.7543 57.1319 41.3861 55.5036 42.5527C55.3585 45.3555 54.8749 46.5059 54.5686 49.6328C54.3429 51.9172 56.2452 52.5491 58.0185 51.4312C58.0185 51.1557 58.0185 50.1998 58.0991 49.973C58.3087 49.973 59.0987 49.9892 59.405 49.9892C59.405 49.9892 59.3244 50.9289 59.7758 51.4312C60.5818 52.3547 62.4358 52.0792 63 51.1395ZM58.212 47.9478C58.3248 47.0729 58.3248 45.2583 58.3732 44.8695C58.4538 44.8047 59.0019 44.8371 59.0664 44.9181C59.2599 45.6796 59.2599 47.0729 59.3082 47.9478H58.212Z" fill="#1A212F"/>
<path d="M39 6.99531L45.5759 0.418766C46.4704 -0.475816 48 0.157766 48 1.423V18.9964C47.9999 13.2963 43.4869 9.82971 39 6.99531Z" fill="#FF7236"/>
<path d="M48 18.9966C48 27.834 40.8366 34.998 32.0001 34.998C23.1637 34.998 16.0002 27.8339 16.0002 18.9966C16.0002 10.1593 23.1636 3.99524 32.0001 3.99524C40.8367 3.99524 48 10.1592 48 18.9966Z" fill="#FFAA50"/>
<path d="M25 18.9964C25 11.2947 29.4219 5.62687 35.3103 4.29649C34.2417 4.1004 33.1354 3.99505 32 3.99505C29.0556 3.99505 26.3064 4.6923 23.9366 5.93182L18.4241 0.418766C17.5296 -0.475816 16 0.157766 16 1.423V18.9964C16 18.6357 16 18.6377 16 18.9964C16 27.8338 23.1634 34.9978 31.9999 34.9978C33.1354 34.9978 34.2417 34.8756 35.3102 34.6508C29.4219 33.1252 25 26.6981 25 18.9964Z" fill="#FF7236"/>
<path d="M28.4999 28.9973C30.4329 28.9973 31.9999 27.6541 31.9999 25.9971C31.9999 24.3401 30.4329 22.9968 28.4999 22.9968C26.567 22.9968 25 24.3401 25 25.9971C25 27.6541 26.567 28.9973 28.4999 28.9973Z" fill="#FFFDFB"/>
<path d="M35.5002 28.9973C37.4331 28.9973 39.0001 27.6541 39.0001 25.9971C39.0001 24.3401 37.4331 22.9968 35.5002 22.9968C33.5672 22.9968 32.0002 24.3401 32.0002 25.9971C32.0002 27.6541 33.5672 28.9973 35.5002 28.9973Z" fill="#FFFDFB"/>
<path d="M32.0003 25.9977C33.1048 25.9977 34.0003 25.1022 34.0003 23.9975C34.0003 22.8928 33.1048 21.9973 32.0003 21.9973C30.8957 21.9973 30.0002 22.8928 30.0002 23.9975C30.0002 25.1022 30.8957 25.9977 32.0003 25.9977Z" fill="#FF913C"/>
<path d="M26.0002 19.9965C25.4474 19.9965 25.0002 19.5487 25.0002 18.9964V17.9964C25.0002 17.4441 25.4475 16.9963 26.0002 16.9963C26.5528 16.9963 27.0001 17.4441 27.0001 17.9964V18.9964C27.0001 19.5487 26.5528 19.9965 26.0002 19.9965Z" fill="#1A212F"/>
<path d="M38 19.9965C37.4472 19.9965 37 19.5487 37 18.9964V17.9964C37 17.4441 37.4473 16.9963 38 16.9963C38.5527 16.9963 38.9999 17.4441 38.9999 17.9964V18.9964C39 19.5487 38.5527 19.9965 38 19.9965Z" fill="#1A212F"/>
</symbol><symbol id="paw-big-mobile-white" viewBox="0 0 355 346">
<path d="M91.0602 94.0212C128.798 140.276 89.5366 217.935 37.0734 197.796C14.4463 189.111 1.38172 164.615 0.994719 139.561C0.103417 81.6974 58.6634 54.3006 91.0602 94.0212Z" fill="#ffffff" fill-opacity="0.75"/>
<path d="M136.893 123.097C78.8621 100.821 99.245 -4.21303 160.585 0.77879C188.531 3.0554 210.31 31.6927 207.083 67.521C203.476 107.683 169.517 135.621 136.893 123.097Z" fill="#ffffff" fill-opacity="0.75"/>
<path d="M84.6069 303.918C93.5197 304.788 108.373 308.846 123.424 314.386C139.338 320.229 155.473 327.722 165.056 334.799C190.92 353.965 237.795 349.61 244.68 305.836C251.04 265.367 221.494 256.47 228.305 218.418C235.211 179.97 215.245 152.471 188.869 143.896C164.455 135.963 134.551 144.249 115.427 175.098C95.058 207.973 67.214 194.817 44.8783 229.139C20.6604 266.297 52.7047 300.826 84.6069 303.918Z" fill="#ffffff" fill-opacity="0.75"/>
<path d="M239.025 162.306C222.611 156.005 212.166 141.077 209.923 123.506C203.26 71.2583 264.522 25.9854 303.257 55.5865C352.26 93.0025 297.025 184.57 239.025 162.306Z" fill="#ffffff" fill-opacity="0.75"/>
<path d="M239.808 238.668C238.643 186.008 304.149 147.374 339.617 181.056C382.341 221.626 325.054 303.881 269.186 282.436C251.257 275.553 240.249 258.687 239.808 238.668Z" fill="#ffffff" fill-opacity="0.75"/>
</symbol><symbol id="paw-big-tablet" viewBox="0 0 177 173">
<g id="surface1">
<path style=" stroke:none;fill-rule:nonzero;fill:rgb(98.039216%,77.647059%,38.823529%);fill-opacity:0.14902;" d="M 45.402344 47.011719 C 64.21875 70.136719 44.640625 108.96875 18.484375 98.898438 C 7.203125 94.554688 0.6875 82.308594 0.496094 69.78125 C 0.0507812 40.847656 29.25 27.148438 45.402344 47.011719 Z M 45.402344 47.011719 "/>
<path style=" stroke:none;fill-rule:nonzero;fill:rgb(98.039216%,77.647059%,38.823529%);fill-opacity:0.14902;" d="M 68.253906 61.546875 C 39.320312 50.410156 49.484375 -2.105469 80.066406 0.390625 C 94 1.527344 104.859375 15.847656 103.25 33.761719 C 101.453125 53.839844 84.519531 67.808594 68.253906 61.546875 Z M 68.253906 61.546875 "/>
<path style=" stroke:none;fill-rule:nonzero;fill:rgb(98.039216%,77.647059%,38.823529%);fill-opacity:0.14902;" d="M 42.183594 151.960938 C 46.628906 152.394531 54.035156 154.421875 61.539062 157.191406 C 69.472656 160.113281 77.515625 163.859375 82.296875 167.398438 C 95.191406 176.984375 118.5625 174.804688 121.996094 152.917969 C 125.167969 132.683594 110.433594 128.234375 113.832031 109.210938 C 117.273438 89.984375 107.320312 76.234375 94.167969 71.949219 C 81.996094 67.980469 67.085938 72.125 57.550781 87.550781 C 47.394531 103.988281 33.511719 97.410156 22.375 114.570312 C 10.300781 133.148438 26.277344 150.414062 42.183594 151.960938 Z M 42.183594 151.960938 "/>
<path style=" stroke:none;fill-rule:nonzero;fill:rgb(98.039216%,77.647059%,38.823529%);fill-opacity:0.14902;" d="M 119.175781 81.152344 C 110.992188 78.003906 105.785156 70.539062 104.664062 61.753906 C 101.34375 35.628906 131.886719 12.992188 151.203125 27.792969 C 175.632812 46.5 148.09375 92.285156 119.175781 81.152344 Z M 119.175781 81.152344 "/>
<path style=" stroke:none;fill-rule:nonzero;fill:rgb(98.039216%,77.647059%,38.823529%);fill-opacity:0.14902;" d="M 119.566406 119.335938 C 118.984375 93.003906 151.644531 73.6875 169.332031 90.527344 C 190.632812 110.8125 162.070312 151.941406 134.214844 141.21875 C 125.273438 137.777344 119.785156 129.34375 119.566406 119.335938 Z M 119.566406 119.335938 "/>
</g>
</symbol><symbol id="paw-big" viewBox="0 0 355 346">
<path d="M91.0602 94.0212C128.798 140.276 89.5366 217.935 37.0734 197.796C14.4463 189.111 1.38172 164.615 0.994719 139.561C0.103417 81.6974 58.6634 54.3006 91.0602 94.0212Z" fill="#FAC663" fill-opacity="0.15"/>
<path d="M136.893 123.097C78.8621 100.821 99.245 -4.21303 160.585 0.77879C188.531 3.0554 210.31 31.6927 207.083 67.521C203.476 107.683 169.517 135.621 136.893 123.097Z" fill="#FAC663" fill-opacity="0.15"/>
<path d="M84.6069 303.918C93.5197 304.788 108.373 308.846 123.424 314.386C139.338 320.229 155.473 327.722 165.056 334.799C190.92 353.965 237.795 349.61 244.68 305.836C251.04 265.367 221.494 256.47 228.305 218.418C235.211 179.97 215.245 152.471 188.869 143.896C164.455 135.963 134.551 144.249 115.427 175.098C95.058 207.973 67.214 194.817 44.8783 229.139C20.6604 266.297 52.7047 300.826 84.6069 303.918Z" fill="#FAC663" fill-opacity="0.15"/>
<path d="M239.025 162.306C222.611 156.005 212.166 141.077 209.923 123.506C203.26 71.2583 264.522 25.9854 303.257 55.5865C352.26 93.0025 297.025 184.57 239.025 162.306Z" fill="#FAC663" fill-opacity="0.15"/>
<path d="M239.808 238.668C238.643 186.008 304.149 147.374 339.617 181.056C382.341 221.626 325.054 303.881 269.186 282.436C251.257 275.553 240.249 258.687 239.808 238.668Z" fill="#FAC663" fill-opacity="0.15"/>
</symbol><symbol id="paw-in-button-white" viewBox="0 0 21 18">
<path d="M16.8034 6.52453C13.8389 8.22469 14.3438 13.1874 17.5593 13.1874C18.9462 13.1874 20.1464 12.1448 20.6808 10.8119C21.915 7.73355 19.3485 5.06432 16.8034 6.52453Z" fill="#FFFFFF"/>
<path d="M13.7587 7.13908C17.3156 7.13908 18.3805 1.09917 15.0014 0.106185C13.4618 -0.346079 11.7112 0.739105 11.1489 2.72284C10.518 4.94628 11.7592 7.13908 13.7587 7.13908Z" fill="#FFFFFF"/>
<path d="M12.844 17.8903C12.35 17.7537 11.4734 17.6658 10.5557 17.6531C9.58576 17.6389 8.57021 17.7084 7.91314 17.8903C6.13849 18.3847 3.72372 17.1886 4.25355 14.7045C4.74363 12.408 6.50447 12.5389 6.92087 10.3625C7.34041 8.16298 8.97086 7.10147 10.5557 7.18444C12.0226 7.26144 13.4502 8.31922 13.8392 10.363C14.2531 12.5409 16.0103 12.4088 16.4997 14.7045C17.0315 17.1906 14.6116 18.3802 12.844 17.8903V17.8903Z" fill="#FFFFFF"/>
<path d="M7.49883 7.13932C8.50492 7.13932 9.36897 6.55499 9.84911 5.66067C11.2764 3.00141 8.93222 -0.680001 6.25595 0.10841C2.87099 1.10414 3.94397 7.13932 7.49883 7.13932Z" fill="#FFFFFF"/>
<path d="M5.89116 11.21C7.03322 8.41567 4.32615 5.00238 1.74076 6.07635C-1.37349 7.36985 3.63247e-05 12.9488 3.42428 12.9488C4.5232 12.9488 5.45707 12.2723 5.89116 11.21Z" fill="#FFFFFF"/>
<path d="M12.8439 17.8903C12.3499 17.7537 11.4733 17.6658 10.5557 17.6531V7.18445C12.0225 7.26145 13.4501 8.31922 13.8391 10.363C14.2531 12.5409 16.0103 12.4088 16.4996 14.7045C17.0314 17.1906 14.6115 18.3802 12.8439 17.8903V17.8903Z" fill="#FFFFFF"/>
</symbol><symbol id="paw-in-button" viewBox="0 0 21 18">
<path d="M16.4253 6.66211C13.6255 8.26781 14.1023 12.9548 17.1392 12.9548C18.449 12.9548 19.5826 11.9701 20.0873 10.7113C21.2529 7.80396 18.829 5.28303 16.4253 6.66211Z" fill="#FF7236"/>
<path d="M13.5496 7.24249C16.9089 7.24249 17.9147 1.53813 14.7232 0.60031C13.2692 0.173171 11.6158 1.19807 11.0848 3.07159C10.4889 5.17151 11.6612 7.24249 13.5496 7.24249Z" fill="#FF7236"/>
<path d="M12.6854 17.3963C12.2188 17.2674 11.3909 17.1843 10.5242 17.1723C9.60815 17.1589 8.64902 17.2245 8.02845 17.3963C6.35239 17.8633 4.07178 16.7336 4.57217 14.3875C5.03503 12.2187 6.69804 12.3422 7.0913 10.2868C7.48754 8.20944 9.02741 7.2069 10.5242 7.28527C11.9096 7.35799 13.2579 8.357 13.6252 10.2872C14.0162 12.3441 15.6758 12.2194 16.138 14.3875C16.6402 16.7355 14.3548 17.859 12.6854 17.3963Z" fill="#FF7236"/>
<path d="M7.63705 7.24269C8.58724 7.24269 9.4033 6.69082 9.85676 5.84619C11.2048 3.33466 8.99081 -0.142223 6.46322 0.602387C3.26631 1.5428 4.27968 7.24269 7.63705 7.24269Z" fill="#FF7236"/>
<path d="M6.11881 11.0872C7.19743 8.44816 4.64076 5.22449 2.199 6.2388C-0.742241 7.46044 0.55498 12.7294 3.78899 12.7294C4.82686 12.7294 5.70884 12.0905 6.11881 11.0872Z" fill="#FF7236"/>
<path d="M12.6855 17.3964C12.219 17.2674 11.3911 17.1843 10.5244 17.1723V7.28528C11.9098 7.358 13.258 8.35701 13.6254 10.2873C14.0164 12.3441 15.676 12.2194 16.1381 14.3876C16.6404 16.7355 14.3549 17.859 12.6855 17.3964Z" fill="#FF7236"/>
</symbol><symbol id="quotes" viewBox="0 0 21 23">
<path d="M3.012 22.0156C1.956 20.2636 1.248 18.4276 0.888 16.5076C0.528 14.5636 0.492 12.6436 0.78 10.7476C1.068 8.85163 1.68 7.03963 2.616 5.31163C3.576 3.58363 4.848 2.03563 6.432 0.667632L8.628 1.99963C9.012 2.26363 9.18 2.58763 9.132 2.97163C9.084 3.33163 8.952 3.63163 8.736 3.87163C8.16 4.59163 7.644 5.49163 7.188 6.57163C6.756 7.62763 6.468 8.77963 6.324 10.0276C6.18 11.2756 6.228 12.5716 6.468 13.9156C6.708 15.2596 7.212 16.5796 7.98 17.8756C8.316 18.4276 8.412 18.9196 8.268 19.3516C8.124 19.7836 7.812 20.0956 7.332 20.2876L3.012 22.0156ZM14.208 22.0156C13.152 20.2636 12.444 18.4276 12.084 16.5076C11.724 14.5636 11.688 12.6436 11.976 10.7476C12.264 8.85163 12.876 7.03963 13.812 5.31163C14.772 3.58363 16.044 2.03563 17.628 0.667632L19.824 1.99963C20.208 2.26363 20.376 2.58763 20.328 2.97163C20.28 3.33163 20.148 3.63163 19.932 3.87163C19.356 4.59163 18.84 5.49163 18.384 6.57163C17.952 7.62763 17.664 8.77963 17.52 10.0276C17.376 11.2756 17.424 12.5716 17.664 13.9156C17.904 15.2596 18.408 16.5796 19.176 17.8756C19.512 18.4276 19.608 18.9196 19.464 19.3516C19.32 19.7836 19.008 20.0956 18.528 20.2876L14.208 22.0156Z" fill="#FAC663"/>
</symbol></svg>