<?xml version="1.0" encoding="UTF-8"?>
<svg xmlns="http://www.w3.org/2000/svg" xmlns:xlink="http://www.w3.org/1999/xlink" width="177px" height="173px" viewBox="0 0 177 173" version="1.1">
<g id="surface1">
<path style=" stroke:none;fill-rule:nonzero;fill:rgb(98.039216%,77.647059%,38.823529%);fill-opacity:0.14902;" d="M 45.402344 47.011719 C 64.21875 70.136719 44.640625 108.96875 18.484375 98.898438 C 7.203125 94.554688 0.6875 82.308594 0.496094 69.78125 C 0.0507812 40.847656 29.25 27.148438 45.402344 47.011719 Z M 45.402344 47.011719 "/>
<path style=" stroke:none;fill-rule:nonzero;fill:rgb(98.039216%,77.647059%,38.823529%);fill-opacity:0.14902;" d="M 68.253906 61.546875 C 39.320312 50.410156 49.484375 -2.105469 80.066406 0.390625 C 94 1.527344 104.859375 15.847656 103.25 33.761719 C 101.453125 53.839844 84.519531 67.808594 68.253906 61.546875 Z M 68.253906 61.546875 "/>
<path style=" stroke:none;fill-rule:nonzero;fill:rgb(98.039216%,77.647059%,38.823529%);fill-opacity:0.14902;" d="M 42.183594 151.960938 C 46.628906 152.394531 54.035156 154.421875 61.539062 157.191406 C 69.472656 160.113281 77.515625 163.859375 82.296875 167.398438 C 95.191406 176.984375 118.5625 174.804688 121.996094 152.917969 C 125.167969 132.683594 110.433594 128.234375 113.832031 109.210938 C 117.273438 89.984375 107.320312 76.234375 94.167969 71.949219 C 81.996094 67.980469 67.085938 72.125 57.550781 87.550781 C 47.394531 103.988281 33.511719 97.410156 22.375 114.570312 C 10.300781 133.148438 26.277344 150.414062 42.183594 151.960938 Z M 42.183594 151.960938 "/>
<path style=" stroke:none;fill-rule:nonzero;fill:rgb(98.039216%,77.647059%,38.823529%);fill-opacity:0.14902;" d="M 119.175781 81.152344 C 110.992188 78.003906 105.785156 70.539062 104.664062 61.753906 C 101.34375 35.628906 131.886719 12.992188 151.203125 27.792969 C 175.632812 46.5 148.09375 92.285156 119.175781 81.152344 Z M 119.175781 81.152344 "/>
<path style=" stroke:none;fill-rule:nonzero;fill:rgb(98.039216%,77.647059%,38.823529%);fill-opacity:0.14902;" d="M 119.566406 119.335938 C 118.984375 93.003906 151.644531 73.6875 169.332031 90.527344 C 190.632812 110.8125 162.070312 151.941406 134.214844 141.21875 C 125.273438 137.777344 119.785156 129.34375 119.566406 119.335938 Z M 119.566406 119.335938 "/>
</g>
</svg>
