<?xml version="1.0" encoding="UTF-8"?>
<svg xmlns="http://www.w3.org/2000/svg" xmlns:xlink="http://www.w3.org/1999/xlink" width="250px" height="244px" viewBox="0 0 249 244" version="1.1">
<g id="surface1">
<path style=" stroke:none;fill-rule:nonzero;fill:rgb(98.039216%,77.647059%,38.823529%);fill-opacity:0.14902;" d="M 63.453125 65.964844 C 89.996094 98.585938 62.382812 153.351562 25.480469 139.148438 C 9.5625 133.023438 0.375 115.75 0.101562 98.082031 C -0.523438 57.277344 40.667969 37.957031 63.453125 65.964844 Z M 63.453125 65.964844 "/>
<path style=" stroke:none;fill-rule:nonzero;fill:rgb(98.039216%,77.647059%,38.823529%);fill-opacity:0.14902;" d="M 95.691406 86.472656 C 54.875 70.761719 69.210938 -3.308594 112.355469 0.210938 C 132.011719 1.816406 147.332031 22.011719 145.0625 47.277344 C 142.527344 75.601562 118.640625 95.300781 95.691406 86.472656 Z M 95.691406 86.472656 "/>
<path style=" stroke:none;fill-rule:nonzero;fill:rgb(98.039216%,77.647059%,38.823529%);fill-opacity:0.14902;" d="M 58.914062 213.984375 C 65.183594 214.597656 75.632812 217.460938 86.21875 221.367188 C 97.410156 225.488281 108.761719 230.773438 115.5 235.761719 C 133.695312 249.277344 166.664062 246.207031 171.507812 215.339844 C 175.984375 186.800781 155.199219 180.527344 159.992188 153.691406 C 164.847656 126.578125 150.804688 107.183594 132.25 101.136719 C 115.078125 95.542969 94.042969 101.386719 80.59375 123.140625 C 66.265625 146.324219 46.679688 137.046875 30.96875 161.253906 C 13.933594 187.457031 36.476562 211.804688 58.914062 213.984375 Z M 58.914062 213.984375 "/>
<path style=" stroke:none;fill-rule:nonzero;fill:rgb(98.039216%,77.647059%,38.823529%);fill-opacity:0.14902;" d="M 167.53125 114.121094 C 155.984375 109.675781 148.636719 99.148438 147.0625 86.757812 C 142.375 49.914062 185.464844 17.988281 212.710938 38.863281 C 247.179688 65.246094 208.328125 129.820312 167.53125 114.121094 Z M 167.53125 114.121094 "/>
<path style=" stroke:none;fill-rule:nonzero;fill:rgb(98.039216%,77.647059%,38.823529%);fill-opacity:0.14902;" d="M 168.082031 167.972656 C 167.261719 130.835938 213.339844 103.589844 238.285156 127.34375 C 268.335938 155.953125 228.042969 213.960938 188.746094 198.835938 C 176.132812 193.984375 168.390625 182.089844 168.082031 167.972656 Z M 168.082031 167.972656 "/>
</g>
</svg>
