<svg width="21" height="18" viewBox="0 0 21 18" fill="none" xmlns="http://www.w3.org/2000/svg">
<path d="M16.4253 6.66211C13.6255 8.26781 14.1023 12.9548 17.1392 12.9548C18.449 12.9548 19.5826 11.9701 20.0873 10.7113C21.2529 7.80396 18.829 5.28303 16.4253 6.66211Z" fill="#FF7236"/>
<path d="M13.5496 7.24249C16.9089 7.24249 17.9147 1.53813 14.7232 0.60031C13.2692 0.173171 11.6158 1.19807 11.0848 3.07159C10.4889 5.17151 11.6612 7.24249 13.5496 7.24249Z" fill="#FF7236"/>
<path d="M12.6854 17.3963C12.2188 17.2674 11.3909 17.1843 10.5242 17.1723C9.60815 17.1589 8.64902 17.2245 8.02845 17.3963C6.35239 17.8633 4.07178 16.7336 4.57217 14.3875C5.03503 12.2187 6.69804 12.3422 7.0913 10.2868C7.48754 8.20944 9.02741 7.2069 10.5242 7.28527C11.9096 7.35799 13.2579 8.357 13.6252 10.2872C14.0162 12.3441 15.6758 12.2194 16.138 14.3875C16.6402 16.7355 14.3548 17.859 12.6854 17.3963Z" fill="#FF7236"/>
<path d="M7.63705 7.24269C8.58724 7.24269 9.4033 6.69082 9.85676 5.84619C11.2048 3.33466 8.99081 -0.142223 6.46322 0.602387C3.26631 1.5428 4.27968 7.24269 7.63705 7.24269Z" fill="#FF7236"/>
<path d="M6.11881 11.0872C7.19743 8.44816 4.64076 5.22449 2.199 6.2388C-0.742241 7.46044 0.55498 12.7294 3.78899 12.7294C4.82686 12.7294 5.70884 12.0905 6.11881 11.0872Z" fill="#FF7236"/>
<path d="M12.6855 17.3964C12.219 17.2674 11.3911 17.1843 10.5244 17.1723V7.28528C11.9098 7.358 13.258 8.35701 13.6254 10.2873C14.0164 12.3441 15.676 12.2194 16.1381 14.3876C16.6404 16.7355 14.3549 17.859 12.6855 17.3964Z" fill="#FF7236"/>
</svg>
